<svg id="Layer_1" data-name="Layer 1" xmlns="http://www.w3.org/2000/svg" viewBox="0 0 624.32 363.74"><defs><style>.cls-1{fill:#fff;}</style></defs><title>Artboard 6 copy 2</title><path class="cls-1" d="M277.3,150.12q15.07-2.93,39.21-2.92,20.55,0,32.61,2.64t18.1,7.25a24.17,24.17,0,0,1,8.29,10.65h49a46.5,46.5,0,0,0-13-30.72q-12.06-12.63-35.62-19.14t-59.38-6.5a337,337,0,0,0-49,3.21q-21.67,3.19-36.95,10.65t-23.37,20q-8.12,12.54-8.11,31.19t8.11,30.92q8.1,12.25,23.37,19.32t36.95,10a369.41,369.41,0,0,0,49,2.92q35.82,0,59.28-6t35.54-18.1q12.06-12.06,13-30h-49q-2.26,4.9-8.29,9.15t-18,6.69q-12,2.44-32.52,2.45-24.13,0-39.21-2.83t-22.05-8.86a19.73,19.73,0,0,1-7-15.65q0-10.54,7-17T277.3,150.12Z"/><polygon class="cls-1" points="164.57 78 60.7 181.87 164.57 285.74 188.59 261.73 108.73 181.87 188.59 102.01 164.57 78"/><polygon class="cls-1" points="459.74 78 435.73 102.01 515.59 181.87 435.73 261.73 459.74 285.74 563.61 181.87 459.74 78"/></svg>