<svg id="Layer_1" data-name="Layer 1" xmlns="http://www.w3.org/2000/svg" viewBox="0 0 530.81 165.02"><defs><style>.cls-1{fill:#fff;}</style></defs><title>Artboard 6 copy 5</title><path class="cls-1" d="M112.6,87a10.76,10.76,0,0,1-3.17,7.31q-2.94,3-8.67,4.42a59.5,59.5,0,0,1-14.47,1.47,91.18,91.18,0,0,1-12-.71,31.73,31.73,0,0,1-9-2.44,12.41,12.41,0,0,1-7.68-12.26,12.83,12.83,0,0,1,7.68-12.49,30.94,30.94,0,0,1,9-2.6,82.59,82.59,0,0,1,12-.78,55.42,55.42,0,0,1,14.49,1.59,18.56,18.56,0,0,1,8.69,4.67,11.34,11.34,0,0,1,3.18,7.49h-12a5.84,5.84,0,0,0-2-2.59,11.16,11.16,0,0,0-4.41-1.78,38.9,38.9,0,0,0-8-.64,52.6,52.6,0,0,0-9.57.71,11.06,11.06,0,0,0-5.38,2.28,5.36,5.36,0,0,0-1.7,4.14,4.83,4.83,0,0,0,1.7,3.82,11.48,11.48,0,0,0,5.38,2.16,53.79,53.79,0,0,0,9.57.69,41.38,41.38,0,0,0,7.94-.6,12,12,0,0,0,4.39-1.63,5.8,5.8,0,0,0,2-2.23Z"/><path class="cls-1" d="M146,100.15q-10,0-16.15-1.77T121,93.14a13.34,13.34,0,0,1-2.78-8.63A13.31,13.31,0,0,1,121,75.89q2.79-3.48,8.9-5.25T146,68.87c6.68,0,12.07.59,16.14,1.77s7.05,2.93,8.9,5.25a13.32,13.32,0,0,1,2.79,8.62A13.34,13.34,0,0,1,171,93.14q-2.78,3.47-8.9,5.24C158.07,99.56,152.68,100.15,146,100.15Zm0-8.74a51,51,0,0,0,8.19-.57,11.71,11.71,0,0,0,5.33-2.07,5.73,5.73,0,0,0,0-8.51,11.49,11.49,0,0,0-5.33-2.07,49.76,49.76,0,0,0-8.19-.58,51.8,51.8,0,0,0-8.3.58,12.49,12.49,0,0,0-5.57,2.07,5.53,5.53,0,0,0,0,8.51,12.74,12.74,0,0,0,5.57,2.07A53.09,53.09,0,0,0,146,91.41Z"/><path class="cls-1" d="M212.93,69.79A36.81,36.81,0,0,1,223.19,71a16.15,16.15,0,0,1,6.34,3.26A11.45,11.45,0,0,1,232.78,79a16.32,16.32,0,0,1,.94,5.54,14.68,14.68,0,0,1-1.06,5.54,12,12,0,0,1-3.47,4.72,17.26,17.26,0,0,1-6.4,3.26,34.62,34.62,0,0,1-9.86,1.2H179.81V69.79ZM191.31,90h21.16a24.61,24.61,0,0,0,4.37-.34,8.47,8.47,0,0,0,2.87-1,4.15,4.15,0,0,0,1.57-1.72,6.32,6.32,0,0,0,0-4.83,4.06,4.06,0,0,0-1.57-1.73,8.26,8.26,0,0,0-2.87-1,23.61,23.61,0,0,0-4.37-.35H191.31Z"/><path class="cls-1" d="M251.2,86.81v3.68h35v8.74H239.7V69.79h46.37v8.74H251.2v3.68h28.52v4.6Z"/><path class="cls-1" d="M290.53,88.42h12.56A3,3,0,0,0,305,90.05a16.18,16.18,0,0,0,4.21,1,48.2,48.2,0,0,0,6.14.34c2.3,0,4.12-.07,5.45-.21a6.79,6.79,0,0,0,2.83-.73,1.64,1.64,0,0,0,.83-1.45c0-.58-.44-1-1.33-1.36a19.23,19.23,0,0,0-4.74-.67q-3.41-.18-9.57-.18a62.14,62.14,0,0,1-7.93-.44A20.2,20.2,0,0,1,295.38,85a7.35,7.35,0,0,1-3.15-2.39,5.92,5.92,0,0,1-1-3.47,7.64,7.64,0,0,1,2.37-5.77A15.2,15.2,0,0,1,300.76,70a54,54,0,0,1,12-1.13q10.59,0,16.17,3.06t5.59,8.81H322.64c-.16-1-1.11-1.78-2.85-2.32a26.59,26.59,0,0,0-7.46-.81,33,33,0,0,0-7.1.56c-1.55.36-2.33,1-2.33,1.88a1.28,1.28,0,0,0,.65,1.11,6.18,6.18,0,0,0,2.23.66,37.19,37.19,0,0,0,4.48.35q2.91.09,7.36.09a62.15,62.15,0,0,1,8.38.48,21.24,21.24,0,0,1,5.58,1.45,7.09,7.09,0,0,1,3.11,2.46,6.38,6.38,0,0,1,1,3.52,7.76,7.76,0,0,1-2.21,5.71q-2.22,2.2-7,3.26a59.76,59.76,0,0,1-12.52,1.06,58.18,58.18,0,0,1-8-.51,33.62,33.62,0,0,1-6.51-1.49,18,18,0,0,1-4.83-2.44,10.63,10.63,0,0,1-3-3.26A8,8,0,0,1,290.53,88.42Z"/><path class="cls-1" d="M351.71,64.87v6.9H340v-6.9ZM340.35,76.69h11V99.23h-11Z"/><path class="cls-1" d="M384.28,100.15a78.58,78.58,0,0,1-11-.71A30.45,30.45,0,0,1,364.66,97,13.52,13.52,0,0,1,359,92.28a13.29,13.29,0,0,1-2-7.54,13.48,13.48,0,0,1,2-7.61,14,14,0,0,1,5.82-4.88,31.79,31.79,0,0,1,9.06-2.6,80.7,80.7,0,0,1,11.76-.78,55.65,55.65,0,0,1,14.28,1.56,20.56,20.56,0,0,1,8.81,4.44A10,10,0,0,1,412,81.7h-12a5.74,5.74,0,0,0-2-2,13.3,13.3,0,0,0-4.42-1.54,41.57,41.57,0,0,0-7.95-.6,52.53,52.53,0,0,0-9.57.71,11,11,0,0,0-5.38,2.28A5.33,5.33,0,0,0,369,84.74a4.69,4.69,0,0,0,1.75,3.73,12.46,12.46,0,0,0,5.61,2.2,56.82,56.82,0,0,0,10.22.74,67,67,0,0,0,7.75-.39,34.3,34.3,0,0,0,6-1.22,41.6,41.6,0,0,0,5.36-2.07l1.1,1.33a19.1,19.1,0,0,1-8.46,8.24Q392.69,100.15,384.28,100.15Zm19.36-.92A15.1,15.1,0,0,1,404,96.1c.25-1.16.56-2.38.94-3.65s.76-2.48,1.13-3.62H388.14V84h24.52V99.23Z"/><path class="cls-1" d="M465.24,90.21,461,92.65V69.79h11.5V99.23H461L426.32,79.17l4.28-2.48V99.23H419.1V69.79h11.5Z"/></svg>